{
  "accessors": [
    {
      "bufferView": 2,
      "componentType": 5126,
      "count": 661,
      "max": [
        100.0,
        83.05642700195313,
        100.0
      ],
      "min": [
        -100.0,
        -83.0564193725586,
        -100.0
      ],
      "type": "VEC3"
    },
    {
      "bufferView": 2,
      "byteOffset": 7932,
      "componentType": 5126,
      "count": 661,
      "max": [
        1.0,
        1.0,
        1.0
      ],
      "min": [
        -1.0,
        -1.0,
        -1.0
      ],
      "type": "VEC3"
    },
    {
      "bufferView": 1,
      "componentType": 5126,
      "count": 661,
      "max": [
        1.0,
        1.0
      ],
      "min": [
        0.0,
        0.0
      ],
      "type": "VEC2"
    },
    {
      "bufferView": 0,
      "componentType": 5125,
      "count": 3492,
      "type": "SCALAR"
    },
    {
      "bufferView": 2,
      "byteOffset": 15864,
      "componentType": 5126,
      "count": 720,
      "max": [
        57.18846130371094,
        101.27332305908203,
        100.50167846679688
      ],
      "min": [
        -57.18846130371094,
        -101.27333068847656,
        -100.50167846679688
      ],
      "type": "VEC3"
    },
    {
      "bufferView": 2,
      "byteOffset": 24504,
      "componentType": 5126,
      "count": 720,
      "max": [
        1.0,
        0.9999405145645142,
        0.9999405145645142
      ],
      "min": [
        -1.0,
        -0.9999405145645142,
        -0.9999405145645142
      ],
      "type": "VEC3"
    },
    {
      "bufferView": 1,
      "byteOffset": 5288,
      "componentType": 5126,
      "count": 720,
      "max": [
        0.25,
        0.9684631824493408
      ],
      "min": [
        0.21875,
        0.5318362712860107
      ],
      "type": "VEC2"
    },
    {
      "bufferView": 0,
      "byteOffset": 13968,
      "componentType": 5125,
      "count": 1080,
      "type": "SCALAR"
    },
    {
      "bufferView": 2,
      "byteOffset": 33144,
      "componentType": 5126,
      "count": 388,
      "max": [
        68.7271957397461,
        111.43128967285156,
        111.43171691894531
      ],
      "min": [
        -58.62446594238281,
        -111.43220520019531,
        -111.43179321289063
      ],
      "type": "VEC3"
    },
    {
      "bufferView": 2,
      "byteOffset": 37800,
      "componentType": 5126,
      "count": 388,
      "max": [
        1.0,
        1.0,
        1.0
      ],
      "min": [
        -1.0,
        -1.0,
        -1.0
      ],
      "type": "VEC3"
    },
    {
      "bufferView": 1,
      "byteOffset": 11048,
      "componentType": 5126,
      "count": 388,
      "max": [
        1.0,
        1.0
      ],
      "min": [
        0.0,
        0.0
      ],
      "type": "VEC2"
    },
    {
      "bufferView": 0,
      "byteOffset": 18288,
      "componentType": 5125,
      "count": 1140,
      "type": "SCALAR"
    },
    {
      "bufferView": 2,
      "byteOffset": 42456,
      "componentType": 5126,
      "count": 6958,
      "max": [
        58.81853103637695,
        123.94523620605469,
        123.94523620605469
      ],
      "min": [
        -58.81853103637695,
        -123.9452133178711,
        -123.94523620605469
      ],
      "type": "VEC3"
    },
    {
      "bufferView": 2,
      "byteOffset": 125952,
      "componentType": 5126,
      "count": 6958,
      "max": [
        0.9999946355819702,
        0.9997896552085876,
        0.999788224697113
      ],
      "min": [
        -0.9999949336051941,
        -0.9997782111167908,
        -0.9997875690460205
      ],
      "type": "VEC3"
    },
    {
      "bufferView": 1,
      "byteOffset": 14152,
      "componentType": 5126,
      "count": 6958,
      "max": [
        1.0031903982162476,
        1.0
      ],
      "min": [
        -0.0032300008460879326,
        0.0
      ],
      "type": "VEC2"
    },
    {
      "bufferView": 0,
      "byteOffset": 22848,
      "componentType": 5125,
      "count": 29952,
      "type": "SCALAR"
    },
    {
      "bufferView": 2,
      "byteOffset": 209448,
      "componentType": 5126,
      "count": 720,
      "max": [
        51.19407653808594,
        116.59342193603516,
        117.48860168457031
      ],
      "min": [
        -51.19407653808594,
        -116.59342193603516,
        -117.4886245727539
      ],
      "type": "VEC3"
    },
    {
      "bufferView": 2,
      "byteOffset": 218088,
      "componentType": 5126,
      "count": 720,
      "max": [
        1.0,
        0.9999405145645142,
        0.9999404549598694
      ],
      "min": [
        -1.0,
        -0.9999405741691589,
        -0.9999405741691589
      ],
      "type": "VEC3"
    },
    {
      "bufferView": 1,
      "byteOffset": 69816,
      "componentType": 5126,
      "count": 720,
      "max": [
        0.25,
        0.9684631824493408
      ],
      "min": [
        0.21875,
        0.5318362712860107
      ],
      "type": "VEC2"
    },
    {
      "bufferView": 0,
      "byteOffset": 142656,
      "componentType": 5125,
      "count": 1080,
      "type": "SCALAR"
    },
    {
      "bufferView": 2,
      "byteOffset": 226728,
      "componentType": 5126,
      "count": 720,
      "max": [
        51.19407653808594,
        117.48860168457031,
        116.5934066772461
      ],
      "min": [
        -51.19407653808594,
        -117.4886245727539,
        -116.59342193603516
      ],
      "type": "VEC3"
    },
    {
      "bufferView": 2,
      "byteOffset": 235368,
      "componentType": 5126,
      "count": 720,
      "max": [
        1.0,
        0.9999405145645142,
        0.9999405145645142
      ],
      "min": [
        -1.0,
        -0.9999405741691589,
        -0.9999405145645142
      ],
      "type": "VEC3"
    },
    {
      "bufferView": 1,
      "byteOffset": 75576,
      "componentType": 5126,
      "count": 720,
      "max": [
        0.25,
        0.9684631824493408
      ],
      "min": [
        0.21875,
        0.5318362712860107
      ],
      "type": "VEC2"
    },
    {
      "bufferView": 0,
      "byteOffset": 146976,
      "componentType": 5125,
      "count": 1080,
      "type": "SCALAR"
    },
    {
      "bufferView": 2,
      "byteOffset": 244008,
      "componentType": 5126,
      "count": 720,
      "max": [
        57.18845748901367,
        100.50167846679688,
        101.27332305908203
      ],
      "min": [
        -57.18845748901367,
        -100.50167846679688,
        -101.27333068847656
      ],
      "type": "VEC3"
    },
    {
      "bufferView": 2,
      "byteOffset": 252648,
      "componentType": 5126,
      "count": 720,
      "max": [
        1.0,
        0.9999405145645142,
        0.9999405741691589
      ],
      "min": [
        -1.0,
        -0.9999405145645142,
        -0.9999405741691589
      ],
      "type": "VEC3"
    },
    {
      "bufferView": 1,
      "byteOffset": 81336,
      "componentType": 5126,
      "count": 720,
      "max": [
        0.25,
        0.9684631824493408
      ],
      "min": [
        0.21875,
        0.5318362712860107
      ],
      "type": "VEC2"
    },
    {
      "bufferView": 0,
      "byteOffset": 151296,
      "componentType": 5125,
      "count": 1080,
      "type": "SCALAR"
    }
  ],
  "asset": {
    "extras": {
      "author": "Jenosuke (https://sketchfab.com/Jenosuke)",
      "license": "CC-BY-4.0 (http://creativecommons.org/licenses/by/4.0/)",
      "source": "https://sketchfab.com/3d-models/hamster-wheel-4303e129ce5d4b4d91c684e6e2c115b9",
      "title": "Hamster Wheel"
    },
    "generator": "Sketchfab-15.16.0",
    "version": "2.0"
  },
  "bufferViews": [
    {
      "buffer": 0,
      "byteLength": 155616,
      "name": "floatBufferViews",
      "target": 34963
    },
    {
      "buffer": 0,
      "byteLength": 87096,
      "byteOffset": 155616,
      "byteStride": 8,
      "name": "floatBufferViews",
      "target": 34962
    },
    {
      "buffer": 0,
      "byteLength": 261288,
      "byteOffset": 242712,
      "byteStride": 12,
      "name": "floatBufferViews",
      "target": 34962
    }
  ],
  "buffers": [
    {
      "byteLength": 504000,
      "uri": "scene.bin"
    }
  ],
  "materials": [
    {
      "doubleSided": true,
      "name": "Material.050",
      "pbrMetallicRoughness": {
        "baseColorFactor": [
          0.426348,
          0.0435226,
          0.8,
          1.0
        ],
        "metallicFactor": 0.0,
        "roughnessFactor": 0.9598561067627434
      }
    },
    {
      "doubleSided": true,
      "name": "Material.059",
      "pbrMetallicRoughness": {
        "baseColorFactor": [
          0.0,
          0.00159578,
          0.8,
          1.0
        ],
        "metallicFactor": 0.0,
        "roughnessFactor": 0.9868292685086749
      }
    },
    {
      "doubleSided": true,
      "name": "Material.048",
      "pbrMetallicRoughness": {
        "baseColorFactor": [
          0.8,
          0.167489,
          0.00192193,
          1.0
        ],
        "metallicFactor": 0.0,
        "roughnessFactor": 0.9351524866273823
      }
    },
    {
      "doubleSided": true,
      "name": "Material.049",
      "pbrMetallicRoughness": {
        "baseColorFactor": [
          0.360646,
          0.8,
          0.538632,
          1.0
        ],
        "metallicFactor": 0.0,
        "roughnessFactor": 0.8462205583819142
      }
    },
    {
      "doubleSided": true,
      "name": "Material.056",
      "pbrMetallicRoughness": {
        "baseColorFactor": [
          0.8,
          0.0,
          0.00240368,
          1.0
        ],
        "metallicFactor": 0.0,
        "roughnessFactor": 0.9619301498413377
      }
    },
    {
      "doubleSided": true,
      "name": "Material.057",
      "pbrMetallicRoughness": {
        "baseColorFactor": [
          0.0,
          0.00279004,
          0.8,
          1.0
        ],
        "metallicFactor": 0.0,
        "roughnessFactor": 0.9866382781719333
      }
    },
    {
      "doubleSided": true,
      "name": "Material.058",
      "pbrMetallicRoughness": {
        "baseColorFactor": [
          0.8,
          0.00161775,
          0.0,
          1.0
        ],
        "metallicFactor": 0.0,
        "roughnessFactor": 0.9617102394643062
      }
    }
  ],
  "meshes": [
    {
      "name": "BezierCircle.001_Material.050_0",
      "primitives": [
        {
          "attributes": {
            "NORMAL": 1,
            "POSITION": 0,
            "TEXCOORD_0": 2
          },
          "indices": 3,
          "material": 0,
          "mode": 4
        }
      ]
    },
    {
      "name": "Cylinder.049_Material.059_0",
      "primitives": [
        {
          "attributes": {
            "NORMAL": 5,
            "POSITION": 4,
            "TEXCOORD_0": 6
          },
          "indices": 7,
          "material": 1,
          "mode": 4
        }
      ]
    },
    {
      "name": "Cylinder.049_Material.048_0",
      "primitives": [
        {
          "attributes": {
            "NORMAL": 9,
            "POSITION": 8,
            "TEXCOORD_0": 10
          },
          "indices": 11,
          "material": 2,
          "mode": 4
        }
      ]
    },
    {
      "name": "Cylinder.049_Material.049_0",
      "primitives": [
        {
          "attributes": {
            "NORMAL": 13,
            "POSITION": 12,
            "TEXCOORD_0": 14
          },
          "indices": 15,
          "material": 3,
          "mode": 4
        }
      ]
    },
    {
      "name": "Cylinder.049_Material.056_0",
      "primitives": [
        {
          "attributes": {
            "NORMAL": 17,
            "POSITION": 16,
            "TEXCOORD_0": 18
          },
          "indices": 19,
          "material": 4,
          "mode": 4
        }
      ]
    },
    {
      "name": "Cylinder.049_Material.057_0",
      "primitives": [
        {
          "attributes": {
            "NORMAL": 21,
            "POSITION": 20,
            "TEXCOORD_0": 22
          },
          "indices": 23,
          "material": 5,
          "mode": 4
        }
      ]
    },
    {
      "name": "Cylinder.049_Material.058_0",
      "primitives": [
        {
          "attributes": {
            "NORMAL": 25,
            "POSITION": 24,
            "TEXCOORD_0": 26
          },
          "indices": 27,
          "material": 6,
          "mode": 4
        }
      ]
    }
  ],
  "nodes": [
    {
      "children": [
        1
      ],
      "matrix": [
        1.0,
        0.0,
        0.0,
        0.0,
        0.0,
        2.220446049250313e-16,
        -1.0,
        0.0,
        0.0,
        1.0,
        2.220446049250313e-16,
        0.0,
        0.0,
        0.0,
        0.0,
        1.0
      ],
      "name": "Sketchfab_model"
    },
    {
      "children": [
        2
      ],
      "matrix": [
        0.009999999776482582,
        0.0,
        0.0,
        0.0,
        0.0,
        0.0,
        0.009999999776482582,
        0.0,
        0.0,
        -0.009999999776482582,
        0.0,
        0.0,
        0.0,
        0.0,
        0.0,
        1.0
      ],
      "name": "0b62b263cc4a46a7b19b45f8a0e43384.fbx"
    },
    {
      "children": [
        3,
        5
      ],
      "name": "RootNode"
    },
    {
      "children": [
        4
      ],
      "matrix": [
        1.0,
        0.0,
        0.0,
        0.0,
        0.0,
        1.0,
        0.0,
        0.0,
        0.0,
        0.0,
        1.0,
        0.0,
        -9.806561470031738,
        -85.26555633544922,
        0.0,
        1.0
      ],
      "name": "BezierCircle.001"
    },
    {
      "mesh": 0,
      "name": "BezierCircle.001_Material.050_0"
    },
    {
      "children": [
        6,
        7,
        8,
        9,
        10,
        11
      ],
      "name": "Cylinder.049"
    },
    {
      "mesh": 1,
      "name": "Cylinder.049_Material.059_0"
    },
    {
      "mesh": 2,
      "name": "Cylinder.049_Material.048_0"
    },
    {
      "mesh": 3,
      "name": "Cylinder.049_Material.049_0"
    },
    {
      "mesh": 4,
      "name": "Cylinder.049_Material.056_0"
    },
    {
      "mesh": 5,
      "name": "Cylinder.049_Material.057_0"
    },
    {
      "mesh": 6,
      "name": "Cylinder.049_Material.058_0"
    }
  ],
  "scene": 0,
  "scenes": [
    {
      "name": "Sketchfab_Scene",
      "nodes": [
        0
      ]
    }
  ]
}
